<svg width="1024" height="300" xmlns="http://www.w3.org/2000/svg">

 <g>
  <title>background</title>
  <rect fill="none" id="canvas_background" height="302" width="1026" y="-1" x="-1"/>
 </g>
 <g>
  <title>Layer 1</title>
  <path id="svg_1" d="m119.325867,231.97171l-9.531883,9.53186q-1.90638,1.906403 -4.384666,1.906403t-4.384674,-1.906403l-88.83717,-88.837189q-1.906368,-1.906342 -1.906368,-4.384644t1.906368,-4.384644l88.83717,-88.837193q1.906387,-1.906372 4.384674,-1.906372t4.384666,1.906372l9.531883,9.531879q1.90638,1.906364 1.90638,4.384651t-1.90638,4.384689l-74.920616,74.920616l74.920616,74.920624q1.90638,1.906372 1.90638,4.384674t-1.90638,4.384674zm112.666901,-203.410458l-71.10788,246.113277q-0.762543,2.478271 -2.954865,3.717438t-4.480011,0.476532l-11.819534,-3.240753q-2.478287,-0.762604 -3.717422,-2.954926t-0.476608,-4.670624l71.107864,-246.113258q0.762543,-2.478287 2.954895,-3.717438t4.47998,-0.476601l11.81955,3.240845q2.478271,0.762558 3.717438,2.954884t0.476593,4.670624zm125.248932,124.105129l-88.837128,88.837189q-1.906403,1.906403 -4.384705,1.906403t-4.384613,-1.906403l-9.531921,-9.53186q-1.906372,-1.906403 -1.906372,-4.384674t1.906372,-4.384674l74.920654,-74.920624l-74.920654,-74.920616q-1.906372,-1.906395 -1.906372,-4.384689t1.906372,-4.384651l9.531921,-9.531879q1.906342,-1.906372 4.384613,-1.906372t4.384705,1.906372l88.837128,88.837193q1.906372,1.906357 1.906372,4.384644t-1.906372,4.384644z"/>
  <text font-style="italic" font-weight="normal" transform="matrix(7.44281, 0, 0, 7.44281, -2772.06, -836.113)" xml:space="preserve" text-anchor="start" font-family="Helvetica, Arial, sans-serif" font-size="24" id="svg_2" y="140.347246" x="427.634207" stroke="#000000" fill="#ffffff">Py</text>
  <text font-style="normal" font-weight="bold" transform="matrix(7.44281, 0, 0, 7.44281, -2772.06, -836.113)" xml:space="preserve" text-anchor="start" font-family="Helvetica, Arial, sans-serif" font-size="24" id="svg_3" y="140.347246" x="457.140247" fill-opacity="null" stroke-opacity="null" stroke-width="0" stroke="null" fill="#000000">Proj</text>
 </g>
</svg>
